<svg xmlns="http://www.w3.org/2000/svg" xmlns:xlink="http://www.w3.org/1999/xlink" width="142.833" height="48" viewBox="0 0 142.833 48"><defs><linearGradient id="a" y1="0.5" x2="1" y2="0.5" gradientUnits="objectBoundingBox"><stop offset="0" stop-color="#1aa9bb"/><stop offset="1" stop-color="#1a67bb"/></linearGradient><linearGradient id="b" x1="0.003" y1="0.448" x2="0.985" y2="0.804" xlink:href="#a"/></defs><g transform="translate(-27.98 -194.524)"><g transform="translate(128 194.524)"><path d="M760.747,413.663v3.911s-1.738,5.823-7.127,2.521c0,0-2-2.26-1.651-4a2.066,2.066,0,0,1,1.651-1.825l4.781-1.3A1.967,1.967,0,0,1,760.747,413.663Zm2.509-3.377v3.739s.956,4.2,4.433,4.141c0,0,4.172.032,4.433-4.141V408.46s.348-2.434-2.086-1.912l-6,1.651A2.646,2.646,0,0,0,763.255,410.285Zm11.4.857v13.211s-.348,4.78,3.911,5.3c0,0,4.52.435,4.781-4.259V413.315s.608-2.086-1.391-2.173l-5.215-1.725S774.653,409.4,774.653,411.142Zm11.473,3.129v10.256s-.435,4.715,4.172,5.139c0,0,3.737.25,4.172-3.14,0,0,.608-8.431,0-9.908,0,0,.521-.956-1.391-2.347l-5.128-1.445S786.126,412.533,786.126,414.271ZM753.789,422.4a1.5,1.5,0,0,0-1.565,1.564s.435,14.689,10.082,23.467c0,0,5.063,5.128,10.789,7.04a27.462,27.462,0,0,0,12.331-8s6.606-8.257,7.127-12.776c0,0,.782-1.826-1.738-1.565a72.741,72.741,0,0,1-8.671,9.777c-3.746,3.391-8.169,5.57-8.992,5.6a6.327,6.327,0,0,1-3.569-1.394c-11.493-7.471-7.361-15.335-7.361-15.335s8.028.132,9.749-3a4.493,4.493,0,0,0-3.841-5.389Z" transform="translate(-751.928 -406.475)" fill="url(#a)"/></g><path d="M142.4,392.872h3.076l-2.036,7.561a59.57,59.57,0,0,0-1.8,7.5.913.913,0,0,0,.195.629.575.575,0,0,0,.433.216,1.66,1.66,0,0,0,.867-.325,26.084,26.084,0,0,0,2.708-2.513l.715.8q-4.355,4.529-6.413,4.528a1.564,1.564,0,0,1-1.192-.542,2.133,2.133,0,0,1-.477-1.495,12.984,12.984,0,0,1,.477-3.011,19.075,19.075,0,0,1-4.766,3.878,6.736,6.736,0,0,1-3.271,1.105,1.5,1.5,0,0,1-1.192-.5,2.38,2.38,0,0,1-.433-1.581,9.334,9.334,0,0,1,.195-1.82q.282-1.365,1.43-5.481a38.885,38.885,0,0,0,1.452-6.261q0-.607-.433-.607a2.263,2.263,0,0,0-1.062.412,15.9,15.9,0,0,0-2.3,1.929l-.953-.758a25.859,25.859,0,0,1,4.42-3.4,5.679,5.679,0,0,1,2.469-.824,1.05,1.05,0,0,1,.845.39,1.741,1.741,0,0,1,.325,1.17,41.239,41.239,0,0,1-1.56,7.344,48.887,48.887,0,0,0-1.387,6,1.15,1.15,0,0,0,.281.78.885.885,0,0,0,.65.325q1.213,0,3.444-1.993a9.462,9.462,0,0,0,2.925-4.571Zm31.521-2.556h-1.17a15.987,15.987,0,0,0,.368-2.34,1.2,1.2,0,0,0-.5-1.061,3.56,3.56,0,0,0-1.885-.347l-1.387.022-.455-.022h-4.333q-.13.5-.693,2.535-1.17,4.2-1.776,6.889h4.225a4.167,4.167,0,0,0,1.992-.3,2.62,2.62,0,0,0,.758-1.538h1.17q-.672,2.73-1.17,5.7h-1.191q.151-1.234.151-1.452a.833.833,0,0,0-.52-.78,5.455,5.455,0,0,0-1.646-.195h-4.138q-.628,3.011-1.646,6.5t-1.755,5.394a19.532,19.532,0,0,0,3.1.282,10.142,10.142,0,0,0,1.755-.152l-.368,1.235a8.631,8.631,0,0,1-1.17.087q-.477,0-2.99-.152-1.494-.108-2.535-.108a27.919,27.919,0,0,0-4.485.39l.26-1.191a7.324,7.324,0,0,0,2.535-.867,3.028,3.028,0,0,0,.953-1.105,64.37,64.37,0,0,0,2.513-8.189l3.314-12.977a11.02,11.02,0,0,0-5.091,1.3,9.536,9.536,0,0,0-3.466,3.271,7.708,7.708,0,0,0-1.278,4.138,7.277,7.277,0,0,0,.217,1.733,6.179,6.179,0,0,0,.606,1.43,4.218,4.218,0,0,1,.629,1.6,1.07,1.07,0,0,1-.368.8,1.388,1.388,0,0,1-.954.325,1.606,1.606,0,0,1-1.408-.91,6.677,6.677,0,0,1-.736-3.445,11.55,11.55,0,0,1,3.4-8.015,11.7,11.7,0,0,1,8.969-3.64h8.319a29.88,29.88,0,0,0,3.055-.173,18.3,18.3,0,0,0,2.144-.455Q174.138,389.059,173.921,390.316Zm3.986,20.191H174.68l1.517-5.828q1.1-4.29,1.928-8.146a8.655,8.655,0,0,0,.195-1.192q0-.52-.477-.52a2.147,2.147,0,0,0-1,.455,19.472,19.472,0,0,0-2.426,2.189l-.672-.758a16.4,16.4,0,0,1,4.138-3.337,7.56,7.56,0,0,1,3.185-1.127.874.874,0,0,1,.607.2.537.537,0,0,1,.238.455,10.007,10.007,0,0,1-.282,1.495l-.931,3.878a27.692,27.692,0,0,1,4.939-5.893,3.744,3.744,0,0,1,2.21-1.17,1.47,1.47,0,0,1,1.083.433,1.3,1.3,0,0,1,.434.975,1.324,1.324,0,0,1-.434,1,6.273,6.273,0,0,1-2.1.975,9.446,9.446,0,0,0-2.621,1.3A12.838,12.838,0,0,0,182,398.2a12.505,12.505,0,0,0-1.668,2.73,44.576,44.576,0,0,0-1.452,5.373Zm20.647-5.438.715.953q-5.308,5.048-9.1,5.048a2.834,2.834,0,0,1-2.361-1.04,5.5,5.5,0,0,1-.8-3.336,17.507,17.507,0,0,1,2.817-9.229q3.162-5.221,7.561-5.222a3.224,3.224,0,0,1,2.34.78,2.714,2.714,0,0,1,.823,2.1,4.727,4.727,0,0,1-.975,2.773,11.272,11.272,0,0,1-3.488,2.838q-1.256.716-5.373,2.578a13.628,13.628,0,0,0-.195,2.232,3.588,3.588,0,0,0,.476,2.145,1.745,1.745,0,0,0,1.43.606,4.635,4.635,0,0,0,1.949-.5A27.527,27.527,0,0,0,198.554,405.069Zm-7.583-3.141a17.018,17.018,0,0,0,5.242-3.358,3.68,3.68,0,0,0,1.192-2.491,2.091,2.091,0,0,0-.5-1.474,1.565,1.565,0,0,0-1.256-.563,2.477,2.477,0,0,0-1.56.607,6.013,6.013,0,0,0-1.712,2.426A21.883,21.883,0,0,0,190.971,401.928Zm22.661,3.141.715.953q-5.308,5.048-9.1,5.048a2.834,2.834,0,0,1-2.361-1.04,5.5,5.5,0,0,1-.8-3.336,17.507,17.507,0,0,1,2.817-9.229q3.162-5.221,7.561-5.222a3.224,3.224,0,0,1,2.34.78,2.714,2.714,0,0,1,.823,2.1,4.727,4.727,0,0,1-.975,2.773,11.272,11.272,0,0,1-3.488,2.838q-1.256.716-5.373,2.578a13.627,13.627,0,0,0-.195,2.232,3.588,3.588,0,0,0,.476,2.145,1.745,1.745,0,0,0,1.43.606,4.635,4.635,0,0,0,1.949-.5A27.525,27.525,0,0,0,213.633,405.069Zm-7.583-3.141a17.018,17.018,0,0,0,5.242-3.358,3.68,3.68,0,0,0,1.192-2.491,2.091,2.091,0,0,0-.5-1.474,1.565,1.565,0,0,0-1.256-.563,2.477,2.477,0,0,0-1.56.607,6.013,6.013,0,0,0-1.712,2.426A21.878,21.878,0,0,0,206.05,401.928Z" transform="translate(-99.645 -180.007)" fill="url(#b)"/></g></svg>