<svg xmlns="http://www.w3.org/2000/svg" width="75.084" height="63" viewBox="0 0 75.084 63"><g transform="translate(-150.916 -393)"><g transform="translate(150.916 375)"><g transform="translate(0 25)"><path d="M62.061,70.454v40.24a5.461,5.461,0,0,1-5.455,5.454H5.455A5.461,5.461,0,0,1,0,110.695V70.454A5.461,5.461,0,0,1,5.455,65H56.606A5.461,5.461,0,0,1,62.061,70.454Z" transform="translate(0 -60.149)" fill="#eef4ff"/><path d="M287.047,70.454v40.24a5.463,5.463,0,0,1-5.458,5.454H256V65h25.59A5.463,5.463,0,0,1,287.047,70.454Z" transform="translate(-224.987 -60.149)" fill="#e2edff"/><path d="M62.061,70.458v8.975a1.819,1.819,0,0,1-1.818,1.819H1.818A1.819,1.819,0,0,1,0,79.432V70.458A5.463,5.463,0,0,1,5.455,65H56.606A5.463,5.463,0,0,1,62.061,70.458Z" transform="translate(0 -60.149)" fill="#ff7976"/><path d="M287.047,70.458v8.975a1.82,1.82,0,0,1-1.819,1.819H256V65h25.59A5.464,5.464,0,0,1,287.047,70.458Z" transform="translate(-224.987 -60.149)" fill="#ff6262"/><path d="M82.819,38.341A1.819,1.819,0,0,1,81,36.521v-9.7a1.819,1.819,0,1,1,3.638,0v9.7A1.819,1.819,0,0,1,82.819,38.341Z" transform="translate(-71.182 -25)" fill="#ffde02"/><path d="M244.638,26.819v9.7a1.819,1.819,0,0,1-3.638,0v-9.7a1.819,1.819,0,0,1,3.638,0Z" transform="translate(-211.789 -25)" fill="#ffde02"/><path d="M257.819,26.819v9.7A1.82,1.82,0,0,1,256,38.341V25A1.82,1.82,0,0,1,257.819,26.819Z" transform="translate(-224.97 -25)" fill="#ffc107"/><path d="M402.819,38.341A1.819,1.819,0,0,1,401,36.521v-9.7a1.819,1.819,0,1,1,3.638,0v9.7A1.819,1.819,0,0,1,402.819,38.341Z" transform="translate(-352.396 -25)" fill="#ffc107"/><g transform="translate(11.754 27.144)"><path d="M102.7,252.638H98.819a1.819,1.819,0,1,1,0-3.638H102.7a1.819,1.819,0,1,1,0,3.638Z" transform="translate(-97 -249)" fill="#7fa3ff"/><path d="M102.7,316.638H98.819a1.819,1.819,0,1,1,0-3.638H102.7a1.819,1.819,0,1,1,0,3.638Z" transform="translate(-97 -305.238)" fill="#7fa3ff"/><path d="M102.7,380.638H98.819a1.819,1.819,0,1,1,0-3.638H102.7a1.819,1.819,0,1,1,0,3.638Z" transform="translate(-97 -361.476)" fill="#7fa3ff"/><path d="M232.519,250.819a1.82,1.82,0,0,1-1.819,1.819h-3.881a1.819,1.819,0,1,1,0-3.638H230.7A1.82,1.82,0,0,1,232.519,250.819Z" transform="translate(-209.476 -249)" fill="#7fa3ff"/></g><path d="M259.76,250.819a1.82,1.82,0,0,1-1.819,1.819H256V249h1.94A1.82,1.82,0,0,1,259.76,250.819Z" transform="translate(-224.971 -221.85)" fill="#1aa9bb"/><path d="M232.519,314.819a1.82,1.82,0,0,1-1.819,1.819h-3.881a1.819,1.819,0,1,1,0-3.638H230.7A1.82,1.82,0,0,1,232.519,314.819Z" transform="translate(-197.729 -278.092)" fill="#7fa3ff"/><path d="M257.94,316.638H256V313h1.94a1.819,1.819,0,1,1,0,3.638Z" transform="translate(-224.971 -278.092)" fill="#1aa9bb"/><path d="M232.519,378.819a1.82,1.82,0,0,1-1.819,1.819h-3.881a1.819,1.819,0,1,1,0-3.638H230.7A1.82,1.82,0,0,1,232.519,378.819Z" transform="translate(-197.729 -334.335)" fill="#7fa3ff"/><path d="M259.76,378.819a1.82,1.82,0,0,1-1.819,1.819H256V377h1.94A1.82,1.82,0,0,1,259.76,378.819Z" transform="translate(-224.971 -334.335)" fill="#1aa9bb"/><path d="M358.7,252.638h-3.881a1.819,1.819,0,0,1,0-3.638H358.7a1.819,1.819,0,1,1,0,3.638Z" transform="translate(-310.215 -221.85)" fill="#1aa9bb"/><path d="M358.7,316.638h-3.881a1.819,1.819,0,0,1,0-3.638H358.7a1.819,1.819,0,1,1,0,3.638Z" transform="translate(-310.215 -278.092)" fill="#1aa9bb"/><path d="M358.7,380.638h-3.881a1.819,1.819,0,0,1,0-3.638H358.7a1.819,1.819,0,1,1,0,3.638Z" transform="translate(-310.215 -334.335)" fill="#1aa9bb"/></g></g><g transform="translate(2 88)"><g transform="translate(160 305)"><g transform="translate(29.315)" fill="#ff5a5f"><path d="M 17.34258079528809 33.18516159057617 C 13.11087036132812 33.18516159057617 9.132451057434082 31.53724098205566 6.140190601348877 28.54497146606445 C 3.147920846939087 25.55271148681641 1.500000834465027 21.57429122924805 1.500000834465027 17.34258079528809 C 1.500000834465027 13.11087036132812 3.147920846939087 9.132451057434082 6.140190601348877 6.140190601348877 C 9.132451057434082 3.147920846939087 13.11087036132812 1.500000834465027 17.34258079528809 1.500000834465027 C 21.57429122924805 1.500000834465027 25.55271148681641 3.147920846939087 28.54497146606445 6.140190601348877 C 31.53724098205566 9.132451057434082 33.18516159057617 13.11087036132812 33.18516159057617 17.34258079528809 C 33.18516159057617 21.57429122924805 31.53724098205566 25.55271148681641 28.54497146606445 28.54497146606445 C 25.55271148681641 31.53724098205566 21.57429122924805 33.18516159057617 17.34258079528809 33.18516159057617 Z" stroke="none"/><path d="M 17.34258079528809 3 C 13.51154136657715 3 9.909801483154297 4.491889953613281 7.200851440429688 7.200851440429688 C 4.491889953613281 9.909801483154297 3 13.51154136657715 3 17.34258079528809 C 3 21.17362213134766 4.491889953613281 24.77536010742188 7.200851440429688 27.48431015014648 C 9.909801483154297 30.19327163696289 13.51154136657715 31.68516159057617 17.34258079528809 31.68516159057617 C 21.17362213134766 31.68516159057617 24.77536010742188 30.19327163696289 27.48431015014648 27.48431015014648 C 30.19327163696289 24.77536010742188 31.68516159057617 21.17362213134766 31.68516159057617 17.34258079528809 C 31.68516159057617 13.51154136657715 30.19327163696289 9.909801483154297 27.48431015014648 7.200851440429688 C 24.77536010742188 4.491889953613281 21.17362213134766 3 17.34258079528809 3 M 17.34258079528809 0 C 26.92061996459961 0 34.68516159057617 7.764541625976562 34.68516159057617 17.34258079528809 C 34.68516159057617 26.92061996459961 26.92061996459961 34.68516159057617 17.34258079528809 34.68516159057617 C 7.764541625976562 34.68516159057617 0 26.92061996459961 0 17.34258079528809 C 0 7.764541625976562 7.764541625976562 0 17.34258079528809 0 Z" stroke="none" fill="#fff"/></g><text transform="translate(38.158 25.843)" fill="#fff" font-size="24" font-family="GothamRounded-Medium, Gotham Rounded" font-weight="500"><tspan x="0" y="0">0</tspan></text></g></g></g></svg>