<svg xmlns="http://www.w3.org/2000/svg" xmlns:xlink="http://www.w3.org/1999/xlink" width="42.813" height="48" viewBox="0 0 42.813 48"><defs><linearGradient id="a" y1="0.5" x2="1" y2="0.5" gradientUnits="objectBoundingBox"><stop offset="0" stop-color="#1aa9bb"/><stop offset="1" stop-color="#1a67bb"/></linearGradient></defs><path d="M760.747,413.663v3.911s-1.738,5.823-7.127,2.521c0,0-2-2.26-1.651-4a2.066,2.066,0,0,1,1.651-1.825l4.781-1.3A1.967,1.967,0,0,1,760.747,413.663Zm2.509-3.377v3.739s.956,4.2,4.433,4.141c0,0,4.172.032,4.433-4.141V408.46s.348-2.434-2.086-1.912l-6,1.651A2.646,2.646,0,0,0,763.255,410.285Zm11.4.857v13.211s-.348,4.78,3.911,5.3c0,0,4.52.435,4.781-4.259V413.315s.608-2.086-1.391-2.173l-5.215-1.725S774.653,409.4,774.653,411.142Zm11.473,3.129v10.256s-.435,4.715,4.172,5.139c0,0,3.737.25,4.172-3.14,0,0,.608-8.431,0-9.908,0,0,.521-.956-1.391-2.347l-5.128-1.445S786.126,412.533,786.126,414.271ZM753.789,422.4a1.5,1.5,0,0,0-1.565,1.564s.435,14.689,10.082,23.467c0,0,5.063,5.128,10.789,7.04a27.462,27.462,0,0,0,12.331-8s6.606-8.257,7.127-12.776c0,0,.782-1.826-1.738-1.565a72.741,72.741,0,0,1-8.671,9.777c-3.746,3.391-8.169,5.57-8.992,5.6a6.327,6.327,0,0,1-3.569-1.394c-11.493-7.471-7.361-15.335-7.361-15.335s8.028.132,9.749-3a4.493,4.493,0,0,0-3.841-5.389Z" transform="translate(-751.928 -406.475)" fill="url(#a)"/></svg>